<svg width="24" height="24" viewBox="0 0 24 24" fill="none" xmlns="http://www.w3.org/2000/svg">
<rect width="24" height="24" rx="12" fill="white"/>
<circle cx="12" cy="12" r="12" fill="#EDF0F4"/>
<path d="M8.38632 11.939C8.35219 12.532 8.8087 13.0397 9.40174 13.0738C9.42307 13.0738 9.4444 13.0738 9.46574 13.0738C10.063 13.0738 10.5452 12.5917 10.5409 11.9944C10.5409 11.3971 10.0588 10.915 9.46147 10.9193C8.88976 10.9193 8.41618 11.3673 8.38632 11.939Z" fill="#0033AD"/>
<path d="M4.36727 11.6617C4.17528 11.6489 4.00889 11.7982 4.00036 11.9902C3.99182 12.1822 4.13689 12.3486 4.32888 12.3571C4.52087 12.3699 4.68299 12.2206 4.69579 12.0286C4.70859 11.8366 4.55927 11.6745 4.36727 11.6617V11.6617Z" fill="#0033AD"/>
<path d="M8.31806 5.68433C8.48872 5.599 8.55698 5.38568 8.47165 5.21502C8.38632 5.04436 8.173 4.97609 8.00234 5.06142C7.83168 5.14675 7.76342 5.35581 7.84875 5.52647C7.93408 5.7014 8.14313 5.77393 8.31806 5.68433C8.31379 5.68433 8.31806 5.68433 8.31806 5.68433Z" fill="#0033AD"/>
<path d="M9.41037 7.59143C9.67489 7.45917 9.78155 7.13492 9.64929 6.87039C9.51703 6.60587 9.19278 6.49921 8.92826 6.63147C8.66373 6.76373 8.55707 7.08798 8.68933 7.35251C8.82159 7.61703 9.14585 7.72369 9.41037 7.59143Z" fill="#0033AD"/>
<path d="M5.73255 8.90125C5.93734 9.03351 6.21039 8.97805 6.34692 8.77326C6.47918 8.56847 6.42372 8.29541 6.21893 8.15888C6.01414 8.02662 5.74108 8.08209 5.60455 8.28688V8.28688C5.46803 8.49167 5.52776 8.76899 5.73255 8.90125Z" fill="#0033AD"/>
<path d="M6.38524 11.4697C6.08659 11.4526 5.83487 11.6787 5.8178 11.9774C5.80073 12.276 6.02686 12.5277 6.32551 12.5448C6.62416 12.5619 6.87589 12.3358 6.89295 12.0371V12.0371C6.91002 11.7427 6.68389 11.4867 6.38524 11.4697Z" fill="#0033AD"/>
<path d="M5.79228 15.0834C5.57469 15.1943 5.4851 15.4588 5.59603 15.6807C5.70695 15.8983 5.97148 15.9879 6.19333 15.8769C6.41092 15.766 6.50052 15.5015 6.38959 15.2796V15.2796C6.27866 15.062 6.00987 14.9724 5.79228 15.0834V15.0834Z" fill="#0033AD"/>
<path d="M7.88292 10.3561C8.17731 10.5481 8.56982 10.467 8.75755 10.1727C8.94954 9.87827 8.86848 9.48576 8.57409 9.29803C8.2797 9.10604 7.88719 9.18711 7.69946 9.48149C7.50747 9.77161 7.58853 10.1641 7.88292 10.3561V10.3561Z" fill="#0033AD"/>
<path d="M14.5172 7.54877C14.7647 7.7109 15.1017 7.64264 15.2638 7.39518C15.426 7.14772 15.3577 6.81067 15.1103 6.64855C14.8628 6.48642 14.5257 6.55468 14.3636 6.80214V6.80214C14.1972 7.05386 14.2655 7.38665 14.5172 7.54877V7.54877Z" fill="#0033AD"/>
<path d="M15.6179 5.6502C15.78 5.75686 15.9933 5.70993 16.1 5.5478C16.2067 5.38568 16.1597 5.17235 15.9976 5.06569C15.8355 4.95903 15.6222 5.00596 15.5155 5.16382C15.4131 5.32595 15.46 5.54354 15.6179 5.6502V5.6502Z" fill="#0033AD"/>
<path d="M14.5983 10.9108C14.0053 10.8766 13.4933 11.3331 13.4635 11.9262C13.4293 12.5192 13.8858 13.0312 14.4789 13.0611C14.5002 13.0611 14.5216 13.0611 14.5386 13.0611C15.1317 13.0611 15.6138 12.579 15.6138 11.9816C15.618 11.4142 15.1701 10.9406 14.5983 10.9108V10.9108Z" fill="#0033AD"/>
<path d="M9.76437 10.2793C9.94783 10.642 10.319 10.8723 10.7286 10.8723C11.3216 10.8723 11.8037 10.3902 11.8037 9.79292C11.8037 9.62653 11.7653 9.46014 11.6886 9.30655C11.4198 8.77324 10.7713 8.55991 10.2422 8.8287C9.70891 9.10176 9.49558 9.75026 9.76437 10.2793V10.2793Z" fill="#0033AD"/>
<path d="M18.2077 8.90123C18.4253 8.7903 18.5106 8.52151 18.3997 8.30392C18.2888 8.08633 18.02 8.001 17.8024 8.11193C17.5848 8.22286 17.4995 8.48738 17.6061 8.70497C17.7213 8.92256 17.9858 9.01216 18.2077 8.90123V8.90123Z" fill="#0033AD"/>
<path d="M15.4772 9.24257C15.1658 9.40043 15.0378 9.78015 15.1956 10.0916C15.3535 10.4031 15.7332 10.531 16.0447 10.3732C16.3561 10.2153 16.4841 9.83561 16.3263 9.52416C16.1684 9.21271 15.7887 9.08898 15.4772 9.24257Z" fill="#0033AD"/>
<path d="M11.9573 5.48806C12.2005 5.50086 12.4096 5.31314 12.4266 5.06995C12.4437 4.82676 12.2517 4.6177 12.0085 4.60064C11.7653 4.58784 11.5563 4.7713 11.5392 5.01449C11.5264 5.26194 11.7141 5.471 11.9573 5.48806V5.48806Z" fill="#0033AD"/>
<path d="M11.9531 8.27407C12.3029 8.29541 12.6016 8.02662 12.6186 7.67677C12.64 7.32692 12.3712 7.02826 12.0213 7.0112C11.6715 6.98986 11.3728 7.25865 11.3558 7.6085C11.3387 7.95835 11.6032 8.25701 11.9531 8.27407V8.27407Z" fill="#0033AD"/>
<path d="M8.5227 14.7421C8.83415 14.5842 8.96215 14.2045 8.80429 13.893C8.64643 13.5816 8.26671 13.4536 7.95526 13.6114C7.64381 13.7693 7.51581 14.149 7.67367 14.4605C7.83153 14.7719 8.21125 14.8999 8.5227 14.7421Z" fill="#0033AD"/>
<path d="M12.3627 9.19991C12.0384 9.69909 12.175 10.3647 12.6741 10.6889C13.1733 11.0132 13.8389 10.8766 14.1631 10.3775C14.4874 9.87828 14.3509 9.21271 13.8517 8.88846C13.6768 8.77326 13.472 8.71353 13.2629 8.71353C12.9003 8.71353 12.5632 8.89699 12.3627 9.19991Z" fill="#0033AD"/>
<path d="M14.2357 13.7053C13.9669 13.172 13.3184 12.9587 12.7893 13.2274C12.256 13.4962 12.0427 14.1447 12.3115 14.6738C12.5803 15.2071 13.2288 15.4204 13.7578 15.1516V15.1516C14.2869 14.8871 14.5045 14.2471 14.2399 13.7138C14.2399 13.7096 14.2399 13.7096 14.2357 13.7053Z" fill="#0033AD"/>
<path d="M16.1171 13.6285C15.8227 13.4365 15.4302 13.5176 15.2424 13.812C15.0504 14.1064 15.1315 14.4989 15.4259 14.6866C15.7203 14.8786 16.1128 14.7975 16.3005 14.5031C16.4925 14.213 16.4114 13.8205 16.1171 13.6285V13.6285Z" fill="#0033AD"/>
<path d="M18.182 12.0115C18.1991 11.7128 17.973 11.4611 17.6743 11.4441C17.3757 11.427 17.1239 11.6531 17.1069 11.9518C17.0898 12.2504 17.3159 12.5021 17.6146 12.5192V12.5192C17.909 12.5363 18.1649 12.3059 18.182 12.0115Z" fill="#0033AD"/>
<path d="M19.6712 11.6275C19.4792 11.6147 19.3128 11.7641 19.3043 11.9561C19.2958 12.148 19.4408 12.3144 19.6328 12.323C19.8248 12.3358 19.9869 12.1864 19.9997 11.9945C20.0083 11.8025 19.8632 11.6403 19.6712 11.6275Z" fill="#0033AD"/>
<path d="M18.2673 15.0834C18.0625 14.9511 17.7895 15.0066 17.653 15.2114C17.5207 15.4162 17.5762 15.6892 17.781 15.8257C17.9857 15.958 18.2588 15.9025 18.3953 15.6978C18.5319 15.493 18.4721 15.2156 18.2673 15.0834V15.0834Z" fill="#0033AD"/>
<path d="M8.37773 18.3344C8.2156 18.2278 8.00228 18.2747 7.89562 18.4326C7.78896 18.5947 7.83589 18.808 7.99375 18.9147C8.15587 19.0213 8.3692 18.9744 8.47586 18.8165V18.8165C8.58679 18.6587 8.53985 18.4411 8.37773 18.3344Z" fill="#0033AD"/>
<path d="M15.682 18.3003C15.5114 18.3856 15.4431 18.5989 15.5284 18.7696C15.6138 18.9403 15.8271 19.0085 15.9977 18.9232C16.1684 18.8379 16.2367 18.6288 16.1513 18.4581C16.066 18.2832 15.857 18.2107 15.682 18.3003C15.6863 18.3003 15.682 18.3003 15.682 18.3003Z" fill="#0033AD"/>
<path d="M11.6373 14.7847C11.9616 14.2855 11.825 13.62 11.3258 13.2915C10.8267 12.9672 10.1611 13.1037 9.83258 13.6029C9.50406 14.1021 9.64485 14.7677 10.144 15.0962C10.319 15.2114 10.5237 15.2711 10.7328 15.2711C11.0997 15.2754 11.4368 15.0919 11.6373 14.7847Z" fill="#0033AD"/>
<path d="M9.48277 16.4358C9.23531 16.2737 8.89826 16.342 8.73613 16.5894C8.57401 16.8369 8.64227 17.1739 8.88973 17.3361C9.13718 17.4982 9.47423 17.4299 9.63636 17.1825V17.1825C9.80275 16.935 9.73449 16.598 9.48277 16.4358Z" fill="#0033AD"/>
<path d="M11.9958 18.4966C11.7526 18.4838 11.5435 18.6715 11.5264 18.9147C11.5094 19.1579 11.7014 19.3669 11.9446 19.384C12.1878 19.3968 12.3968 19.2133 12.4139 18.9701C12.4267 18.7227 12.2389 18.5136 11.9958 18.4966V18.4966Z" fill="#0033AD"/>
<path d="M12 15.7105C11.6502 15.6892 11.3515 15.958 11.3344 16.3078C11.3131 16.6577 11.5819 16.9563 11.9317 16.9734C12.2816 16.9905 12.5802 16.726 12.5973 16.3761C12.6186 16.0305 12.3499 15.7276 12 15.7105V15.7105Z" fill="#0033AD"/>
<path d="M14.5898 16.3932C14.3253 16.5297 14.2187 16.854 14.3552 17.1185C14.4917 17.383 14.816 17.4897 15.0805 17.3531C15.345 17.2209 15.4517 16.8966 15.3194 16.6321C15.1829 16.3676 14.8586 16.2566 14.5898 16.3932V16.3932Z" fill="#0033AD"/>
</svg>
