<svg width="24" height="24" viewBox="0 0 24 24" fill="none" xmlns="http://www.w3.org/2000/svg">
<rect width="24" height="24" rx="12" fill="white"/>
<path d="M23.641 14.9029C22.0381 21.3315 15.5262 25.2438 9.09606 23.6407C2.66863 22.0381 -1.24415 15.5265 0.359423 9.09837C1.96159 2.66903 8.47349 -1.24361 14.9016 0.359081C21.3313 1.96177 25.2438 8.47405 23.6408 14.903L23.6409 14.9029H23.641Z" fill="#F3BA2F"/>
<path d="M16.2833 14.4472V12.5392L14.7151 13.4344V15.3439L16.2833 14.4472Z" fill="white"/>
<path d="M16.2833 9.5528L14.6564 8.6225L11.9999 10.1409L9.34346 8.6225L7.71655 9.5528V11.2438L10.4178 12.7882V15.9916L11.9999 16.8959L13.582 15.9916V12.7882L16.2833 11.2438V9.5528Z" fill="white"/>
<path d="M18.9999 9.69181V8.00077L17.373 7.07047L15.7893 7.9748L17.4162 8.9051V10.5961L18.9999 9.69181Z" fill="white"/>
<path d="M6.58368 10.5961V8.9051L8.21059 7.9748L6.6269 7.07047L5 8.00077V9.69181L6.58368 10.5961Z" fill="white"/>
<path d="M7.71655 14.4472L9.2848 15.3439V13.4344L7.71655 12.5392V14.4472Z" fill="white"/>
<path d="M13.5822 17.287L12.0001 18.1913L10.418 17.287V19.0957L12.0001 20L13.5822 19.0957V17.287Z" fill="white"/>
<path d="M13.5235 7.97479L12 7.10406L10.4766 7.97479L12 8.84552L13.5235 7.97479Z" fill="white"/>
<path d="M17.4163 11.8915V15.0949L14.7151 16.6393V18.448L19 15.9992V10.9872L17.4163 11.8915Z" fill="white"/>
<path d="M9.2849 16.6393L6.58368 15.0949V11.8915L5 10.9872V15.9992L9.2849 18.448V16.6393Z" fill="white"/>
<path d="M9.34345 7.3271L11.9999 5.8102L14.6564 7.3271L16.24 6.42276L11.9999 4L7.75977 6.42276L9.34345 7.3271Z" fill="white"/>
</svg>
