<svg width="24" height="24" viewBox="0 0 24 24" fill="none" xmlns="http://www.w3.org/2000/svg">
<g clip-path="url(#clip0_4_106)">
<path d="M23.6333 15.0031C22.0334 21.3245 15.5339 25.1716 9.11593 23.5952C2.70068 22.0193 -1.20468 15.6163 0.395851 9.29547C1.99498 2.97338 8.49453 -0.873983 14.9105 0.701968C21.328 2.27792 25.2331 8.68156 23.6331 15.0032L23.6332 15.0031H23.6333Z" fill="#F7931A"/>
<path d="M17.3165 10.4582C17.5549 8.88792 16.3413 8.04383 14.6818 7.48073L15.2201 5.35363L13.9057 5.03098L13.3816 7.10209C13.036 7.01719 12.6812 6.93719 12.3284 6.85789L12.8563 4.77311L11.5427 4.45047L11.004 6.57689C10.7181 6.51275 10.4372 6.44936 10.1647 6.38257L10.1662 6.37588L8.35358 5.92999L8.00392 7.31295C8.00392 7.31295 8.97913 7.53316 8.95858 7.54671C9.49086 7.67758 9.58712 8.02468 9.57113 8.2998L8.95788 10.7231C8.99453 10.7322 9.04207 10.7455 9.09454 10.7663C9.05068 10.7555 9.00402 10.7438 8.9556 10.7324L8.09602 14.1271C8.03097 14.2864 7.86586 14.5255 7.49371 14.4347C7.50688 14.4535 6.53834 14.1998 6.53834 14.1998L5.88574 15.682L7.59629 16.102C7.91451 16.1806 8.22635 16.2629 8.53345 16.3402L7.98951 18.4917L9.30245 18.8144L9.84111 16.6857C10.1998 16.7816 10.5479 16.8701 10.8886 16.9535L10.3518 19.0721L11.6663 19.3948L12.2102 17.2473C14.4516 17.6652 16.137 17.4967 16.8464 15.4996C17.418 13.8917 16.8179 12.9643 15.6387 12.3595C16.4976 12.1643 17.1445 11.6079 17.317 10.4584L17.3166 10.4581L17.3165 10.4582ZM14.3133 14.6067C13.9071 16.2146 11.1588 15.3454 10.2678 15.1274L10.9896 12.277C11.8806 12.4962 14.7379 12.9298 14.3134 14.6067H14.3133ZM14.7198 10.4349C14.3493 11.8975 12.0619 11.1544 11.3199 10.9722L11.9743 8.38712C12.7163 8.56932 15.1058 8.90938 14.7199 10.4349H14.7198Z" fill="white"/>
</g>
<defs>
<clipPath id="clip0_4_106">
<rect width="24" height="24" fill="white"/>
</clipPath>
</defs>
</svg>
