<svg width="24" height="24" viewBox="0 0 24 24" fill="none" xmlns="http://www.w3.org/2000/svg">
<rect width="24" height="24" rx="12" fill="white"/>
<circle cx="12.0999" cy="11.9" r="10.7" fill="white"/>
<path fill-rule="evenodd" clip-rule="evenodd" d="M1 12C1 5.92487 5.92485 1 12 1H12.0639C14.9728 1.00846 17.7592 2.17215 19.8101 4.23505C21.861 6.29795 23.0084 9.09109 22.9999 12C22.9999 18.0751 18.0751 23 12 23C5.92485 23 1 18.0751 1 12ZM11.0412 16.2349L12.1865 12.3729L13.971 11.8668L14.3439 10.5884L12.586 11.1211L14.4504 4.78207V4.68086C14.4476 4.5989 14.4124 4.52141 14.3524 4.46546C14.2925 4.4095 14.2127 4.37968 14.1308 4.38256H11.7603C11.5757 4.37686 11.4109 4.49771 11.3608 4.67553L9.15017 12.1864L7.39231 12.7191L6.9928 13.9443L8.75066 13.4116L7.17924 18.7651H16.5545C16.7398 18.7728 16.9056 18.6511 16.954 18.4721L17.4867 16.6344V16.5332C17.4839 16.4512 17.4487 16.3737 17.3887 16.3178C17.3288 16.2618 17.249 16.232 17.1671 16.2349H11.0412Z" fill="#345D9D"/>
</svg>
