<svg width="24" height="24" viewBox="0 0 24 24" fill="none" xmlns="http://www.w3.org/2000/svg">
<rect width="24" height="24" rx="12" fill="white"/>
<path fill-rule="evenodd" clip-rule="evenodd" d="M12 24C5.4 24 0 18.6001 0 11.9402C0.06 5.34038 5.4 -0.0595036 12.06 0.000495204C18.66 0.060494 24 5.40038 24 12.1202C23.94 18.6601 18.6 24 12 24" fill="#FC070C"/>
<path fill-rule="evenodd" clip-rule="evenodd" d="M19.4472 8.406L19.4471 8.40599C18.8914 7.86639 18.3042 7.29621 17.7859 6.83621L17.7334 6.79946C17.646 6.72931 17.5475 6.6743 17.442 6.63671L17.042 6.56208C14.282 6.0471 5.33583 4.37783 5.1518 4.40022C5.09737 4.40784 5.04534 4.42757 4.99955 4.45797L4.94967 4.49734C4.88826 4.55971 4.84162 4.63506 4.81317 4.71784L4.80005 4.75197V4.93834V4.96722C5.40742 6.65847 6.9852 10.4355 8.44203 13.9229C9.67369 16.8713 10.8189 19.6128 11.2182 20.7119L11.2183 20.7124C11.2708 20.8752 11.3706 21.1844 11.5568 21.2002H11.5988C11.6985 21.2002 12.1238 20.6384 12.1238 20.6384C12.1238 20.6384 19.7258 11.4194 20.4949 10.4377C20.5944 10.3168 20.6823 10.1867 20.7574 10.0492C20.7963 9.83038 20.7176 9.60716 20.55 9.4612C20.2225 9.15882 19.8428 8.79017 19.4472 8.40601L19.4472 8.406ZM14.0741 10.5348L17.3186 7.84421L19.2218 9.5977L14.0741 10.5348ZM7.22817 5.78096L12.8141 10.3589L16.266 7.44783L7.22817 5.78096ZM13.3181 11.5586L19.0354 10.6372L12.4991 18.5122L13.3181 11.5586ZM12.3469 11.2252L6.46954 6.23771L11.4964 18.5174L12.3469 11.2252Z" fill="white"/>
</svg>
