<svg width="24" height="24" viewBox="0 0 24 24" fill="none" xmlns="http://www.w3.org/2000/svg">
<rect x="1.35815" y="1" width="22" height="22" rx="11" fill="white"/>
<path d="M12.3582 23C18.454 23 23.3582 18.0959 23.3582 12C23.3582 5.90413 18.454 1 12.3582 1C6.26228 1 1.35815 5.90413 1.35815 12C1.35815 18.0959 6.26228 23 12.3582 23Z" fill="#2775CA"/>
<path d="M15.3831 13.7416C15.3831 12.1375 14.4206 11.5875 12.4956 11.3584C11.1206 11.175 10.8456 10.8084 10.8456 10.1666C10.8456 9.5249 11.304 9.11251 12.2206 9.11251C13.0456 9.11251 13.504 9.38751 13.7331 10.075C13.779 10.2125 13.9165 10.3041 14.054 10.3041H14.7872C14.9706 10.3041 15.1081 10.1666 15.1081 9.98338V9.93751C14.9247 8.92914 14.0997 8.15001 13.0456 8.05838V6.95838C13.0456 6.77501 12.9081 6.63751 12.679 6.59164H11.9915C11.8081 6.59164 11.6706 6.72914 11.6247 6.95838V8.01251C10.2497 8.19588 9.37896 9.11251 9.37896 10.2584C9.37896 11.7709 10.2956 12.3666 12.2206 12.5959C13.504 12.825 13.9165 13.1 13.9165 13.8334C13.9165 14.5668 13.2747 15.0709 12.404 15.0709C11.2122 15.0709 10.7997 14.5666 10.6622 13.8791C10.6165 13.6959 10.479 13.6041 10.3415 13.6041H9.56222C9.37896 13.6041 9.24146 13.7416 9.24146 13.925V13.9709C9.42472 15.1166 10.1581 15.9416 11.6706 16.1709V17.2709C11.6706 17.4541 11.8081 17.5916 12.0372 17.6375H12.7247C12.9081 17.6375 13.0456 17.5 13.0915 17.2709V16.1709C14.4665 15.9416 15.3831 14.9791 15.3831 13.7416Z" fill="white"/>
<path fill-rule="evenodd" clip-rule="evenodd" d="M5.94144 9.75413C4.6122 13.2834 6.44557 17.2709 10.0206 18.5541C10.1581 18.6459 10.2956 18.8291 10.2956 18.9666V19.6084C10.2956 19.7 10.2956 19.7459 10.2497 19.7916C10.2039 19.975 10.0206 20.0666 9.8372 19.975C7.27057 19.15 5.2997 17.1791 4.4747 14.6125C3.0997 10.2584 5.48307 5.62913 9.8372 4.25413C9.88307 4.20837 9.9747 4.20837 10.0206 4.20837C10.2039 4.25413 10.2956 4.39163 10.2956 4.575V5.21663C10.2956 5.44587 10.2039 5.58337 10.0206 5.675C8.14144 6.3625 6.62894 7.82913 5.94144 9.75413ZM14.4664 4.4375C14.5122 4.25413 14.6956 4.1625 14.8789 4.25413C17.3997 5.07913 19.4164 7.05 20.2414 9.6625C21.6164 14.0166 19.2331 18.6459 14.8789 20.0209C14.8331 20.0666 14.7414 20.0666 14.6956 20.0666C14.5122 20.0209 14.4206 19.8834 14.4206 19.7V19.0584C14.4206 18.8291 14.5122 18.6916 14.6956 18.6C16.5747 17.9125 18.0872 16.4459 18.7747 14.5209C20.1039 10.9916 18.2706 7.00413 14.6956 5.72087C14.5581 5.62913 14.4206 5.44587 14.4206 5.2625V4.62087C14.4206 4.52913 14.4206 4.48337 14.4664 4.4375Z" fill="white"/>
</svg>
