<svg width="24" height="24" viewBox="0 0 24 24" fill="none" xmlns="http://www.w3.org/2000/svg">
<path opacity="0.2" d="M24 11.9999C24 18.6274 18.6275 24 12.0001 24C5.37258 24 0 18.6274 0 11.9999C0 5.37255 5.37258 0 12.0001 0C18.6274 0 24 5.37255 24 11.9999" fill="#00A478"/>
<path d="M10.9562 11.3042V9.21594H8.16431V7.38547H15.9659V9.24172H13.1741V11.3042H10.9562Z" fill="#00A478"/>
<path fill-rule="evenodd" clip-rule="evenodd" d="M6.96411 11.5361C6.96411 10.84 9.20806 10.2728 12 10.2728C14.7918 10.2728 17.0358 10.84 17.0358 11.5361C17.0358 12.2322 14.7918 12.7994 12 12.7994C9.20806 12.7994 6.96411 12.2322 6.96411 11.5361ZM16.6183 11.5363C16.4356 11.2785 14.9223 10.4792 11.9999 10.4792C9.07756 10.4792 7.5642 11.2527 7.38155 11.5363C7.5642 11.7941 9.07756 12.1808 11.9999 12.1808C14.9484 12.1808 16.4356 11.7941 16.6183 11.5363Z" fill="#00A478"/>
<path d="M13.1739 11.9484V10.5047C12.8086 10.4789 12.4173 10.4531 12.0259 10.4531C11.6606 10.4531 11.3214 10.4531 10.9822 10.4789V11.9227C11.2953 11.9227 11.6606 11.9484 12.0259 11.9484C12.4173 11.9742 12.8086 11.9742 13.1739 11.9484Z" fill="#00A478"/>
<path d="M12 12.7989C11.6347 12.7989 11.2955 12.7989 10.9563 12.7731V16.6145H13.1481V12.7473C12.7828 12.7731 12.3914 12.7989 12 12.7989Z" fill="#00A478"/>
</svg>
