<svg width="24" height="24" viewBox="0 0 24 24" fill="none" xmlns="http://www.w3.org/2000/svg">
<path d="M22.6709 14.661C21.2016 20.5539 15.2323 24.1402 9.33806 22.6707C3.44625 21.2015 -0.14047 15.2326 1.32947 9.34017C2.79812 3.44661 8.76736 -0.139972 14.6598 1.32916C20.5537 2.79829 24.1402 8.76788 22.6707 14.6611L22.6708 14.661H22.6709Z" fill="#23292F"/>
<path d="M17.6787 6H20L15.1692 9.93248C13.4198 11.3558 10.5834 11.3558 8.83269 9.93248L4 6H6.32318L9.99333 8.98727C11.106 9.88888 12.8931 9.88888 14.0057 8.98727L17.6787 6Z" fill="white"/>
<path d="M6.31406 18H4L8.84375 13.2748C10.5866 11.5751 13.4122 11.5751 15.1563 13.2748L20 18H17.6875L14 14.4036C12.8915 13.3269 11.1113 13.3269 10.0028 14.4036L6.31406 18Z" fill="white"/>
</svg>
