<svg width="24" height="24" viewBox="0 0 24 24" fill="none" xmlns="http://www.w3.org/2000/svg">
<g id="Graphics/Icon/Youtube">
<path id="Subtract" fill-rule="evenodd" clip-rule="evenodd" d="M21.3767 4.47752C22.4093 4.74037 23.2224 5.51498 23.4984 6.49824C24 8.28095 24 11.9999 24 11.9999C24 11.9999 24 15.719 23.4984 17.5016C23.2224 18.4848 22.4093 19.2596 21.3767 19.5223C19.505 20 11.9999 20 11.9999 20C11.9999 20 4.49498 20 2.62334 19.5223C1.59071 19.2596 0.777577 18.4848 0.501593 17.5016C0 15.719 0 11.9999 0 11.9999C0 11.9999 0 8.28095 0.501593 6.49824C0.777577 5.51498 1.59071 4.74037 2.62334 4.47752C4.49498 4 11.9999 4 11.9999 4C11.9999 4 19.505 4 21.3767 4.47752ZM15.8351 12.0001L9.60001 15.4285V8.57127L15.8351 12.0001Z" fill="#D9232E"/>
</g>
</svg>
